# xmcd
#
# Track frame offsets: 
#        165
#        20194
#        34571
#        50192
#        65977
#        85298
#        106710
#        124038
#        139440
#        155811
#        173364
#
# Disc length: 2671 seconds
#
# Revision: 0
# Processed by: cddbd v1.4PL0 Copyright (c) Steve Scherf et al.
# Submitted via: ExactAudioCopy v0.90b4
#
DISCID=9c0a6d0b
DTITLE=Various Artist - Natal no sul
DYEAR=2000
DGENRE=Country
TTITLE0=Oswaldir and Carlos Magrão - Jingle Bells
TTITLE1=Edison Campagna E Pequenos Cantores Do La Salle - Noite Feliz
TTITLE2=Tchê Barbaridade - Conto De Natal
TTITLE3=Tchê Guri - Pão, Vinho E Vanerão
TTITLE4=Os Nativos, Ivan Vargas, Daniela Torres, Edison Campagna - Boa
TTITLE4=s Festas
TTITLE5=Leonardo - Presente De Deus
TTITLE6=Luiz Carlos Borges E Renato Borghetti - Dádiva De Lã
TTITLE7=Délcio Tavares E Pequenos Cantores Do La Salle - Natal Das Cri
TTITLE7=anças
TTITLE8=Quero Quero - O Velhinho
TTITLE9=Teixeirinha Filho - Papai Noel
TTITLE10=Jayme Caetano Braun, Lucio Yanel - Natal Galponeiro
EXTD=
EXTT0=
EXTT1=
EXTT2=
EXTT3=
EXTT4=
EXTT5=
EXTT6=
EXTT7=
EXTT8=
EXTT9=
EXTT10=
PLAYORDER=
